<?xml version="1.0" encoding="UTF-8"?>
<svg version="1.1" xmlns="http://www.w3.org/2000/svg" width="1024" height="1024">
<path d="M0 0 C337.92 0 675.84 0 1024 0 C1024 337.92 1024 675.84 1024 1024 C686.08 1024 348.16 1024 0 1024 C0 686.08 0 348.16 0 0 Z " fill="#010316" transform="translate(0,0)"/>
<path d="M0 0 C0.66 0 1.32 0 2 0 C18.57910157 33.15820314 18.57910157 33.15820314 19.60923386 35.2184763 C20.28938267 36.57876823 20.96954059 37.9390556 21.64970779 39.29933834 C23.31297157 42.62576692 24.97608243 45.95227176 26.63885498 49.27894592 C29.27310183 54.54891368 31.90739385 59.81883847 34.55175781 65.08374023 C38.37625776 72.70112058 42.10285288 80.35834198 45.75 88.0625 C50.09053 97.17601899 54.5995007 106.17725577 59.37597656 115.07055664 C62.74721474 121.406602 65.84834141 127.84971271 68.92358398 134.33349609 C74.41980183 145.86927404 80.09539844 157.30985088 85.82739258 168.72994995 C87.5555643 172.17320787 89.2810079 175.6178219 91.00585938 179.06274414 C94.66814141 186.37638214 98.33385893 193.68829586 102 201 C106.25771598 209.49153346 110.51397202 217.98379282 114.7668457 226.47775269 C116.44378916 229.82529112 118.12318785 233.17158931 119.80273438 236.51782227 C125.88711521 248.65789992 131.8462911 260.84935311 137.67004395 273.1166687 C140.25275814 278.55047409 142.91691979 283.9410468 145.6328125 289.30957031 C150.57114512 299.08935123 155.47958704 308.88425191 160.39068604 318.67773056 C162.13239391 322.1506276 163.87566668 325.62272335 165.62207031 329.09326172 C167.33354131 332.49455097 169.04114945 335.89775328 170.74604797 339.30234146 C171.392164 340.59088161 172.03968659 341.87871746 172.68864441 343.1658287 C173.58713242 344.94837972 174.48023035 346.73364456 175.37304688 348.51904297 C175.88186401 349.53223602 176.39068115 350.54542908 176.91491699 351.58932495 C178 354 178 354 178 356 C157.21 356 136.42 356 115 356 C100.29671542 328.85547462 100.29671542 328.85547462 94.18579102 316.83544922 C88.41412276 305.48870807 82.55035642 294.20094972 76.5 283 C69.9525853 270.87492835 63.63434035 258.64069539 57.35083008 246.37744141 C56.59849697 244.9091659 55.8461375 243.44090389 55.09375 241.97265625 C54.73210251 241.26685425 54.37045502 240.56105225 53.99784851 239.8338623 C50.89185316 233.77754147 47.73717817 227.74798715 44.5534668 221.73217773 C41.17048919 215.33790637 37.83308116 208.92040519 34.5 202.5 C30.75135613 195.27974829 26.98857991 188.06777564 23.1875 180.875 C18.92544846 172.79126655 14.69592061 164.69053866 10.48721313 156.57891846 C9.74805794 155.15577344 9.00748592 153.73336336 8.26547241 152.31170654 C7.22254384 150.31267456 6.18486774 148.31100084 5.1484375 146.30859375 C4.54177246 145.14126709 3.93510742 143.97394043 3.31005859 142.77124023 C2 140 2 140 2 138 C1.34 138 0.68 138 0 138 C-0.33 139.155 -0.66 140.31 -1 141.5 C-2.75479079 146.77261083 -5.22521061 151.63488585 -7.74414062 156.5703125 C-10.26114617 161.50418956 -12.664687 166.47772233 -15 171.5 C-17.89711841 177.71488906 -20.90947151 183.85977365 -24 189.98046875 C-26.41557911 194.7833194 -28.72792946 199.62778814 -31 204.5 C-34.84719998 212.7456208 -38.9016748 220.8769722 -43 229 C-44.65 232.3 -46.3 235.6 -48 239 C-22.26 239 3.48 239 30 239 C26.42419444 241.86064445 22.95880318 244.44649792 19.16796875 246.9765625 C18.61949783 247.34308929 18.07102692 247.70961609 17.50593567 248.08724976 C15.73490875 249.26920445 13.96138725 250.44734326 12.1875 251.625 C11.57753174 252.03105469 10.96756348 252.43710937 10.33911133 252.85546875 C3.0304767 257.71958039 -4.31082036 262.51146157 -11.7956543 267.10107422 C-18.94821624 271.52218611 -25.90117902 276.24715051 -32.88391113 280.92944336 C-41.67597422 286.82175593 -50.54187918 292.57788803 -59.49023438 298.23120117 C-65.18264139 301.83102804 -70.81629649 305.50265445 -76.40600586 309.25952148 C-82.16806019 313.12822897 -87.9859289 316.90848347 -93.81152344 320.68066406 C-98.74334228 323.87621498 -103.66197841 327.09070091 -108.56640625 330.328125 C-148.45440662 356.63709424 -148.45440662 356.63709424 -175 356 C-174.38273333 351.71119912 -172.79069671 348.23865265 -170.8125 344.4375 C-170.08549944 343.01063978 -169.35897581 341.5835365 -168.6328125 340.15625 C-168.22063477 339.35058594 -167.80845703 338.54492188 -167.38378906 337.71484375 C-164.62503936 332.30247666 -161.90858924 326.86886719 -159.1875 321.4375 C-158.37212769 319.81896118 -158.37212769 319.81896118 -157.5402832 318.16772461 C-154.49215874 312.09046848 -151.51191364 305.98766513 -148.60256958 299.84269714 C-143.03759336 288.1025101 -137.27534698 276.46772777 -131.45703125 264.8515625 C-130.81499032 263.56963233 -130.81499032 263.56963233 -130.15997887 262.26180458 C-127.04698883 256.04811276 -123.93011406 249.83637277 -120.8125 243.625 C-117.67890042 237.38167535 -114.54674397 231.13763444 -111.41797447 224.89188766 C-110.18795751 222.43819126 -108.955486 219.98573949 -107.72285461 217.53335571 C-103.68497489 209.48356375 -99.74920642 201.39808319 -95.94111633 193.2370615 C-92.75077515 186.42008286 -89.38934344 179.69421498 -85.9968605 172.97606277 C-84.34180924 169.69527758 -82.69844783 166.40864506 -81.0534668 163.12280273 C-80.3822011 161.78336887 -79.71086945 160.44396807 -79.03947449 159.104599 C-76.43236073 153.90280131 -73.82738286 148.6999344 -71.22258282 143.49697781 C-69.26412368 139.58525692 -67.30491646 135.6739145 -65.34399414 131.76342773 C-54.83916411 110.86683285 -54.83916411 110.86683285 -44.65625 89.8125 C-36.77531309 73.1588497 -28.42154822 56.73274744 -20.16577148 40.26287842 C-17.88439325 35.7105143 -15.60539601 31.15695851 -13.32617188 26.60351562 C-8.88638624 17.73453825 -4.44405076 8.86684089 0 0 Z " fill="#7229E2" transform="translate(415,323)"/>
<path d="M0 0 C22.44 0 44.88 0 68 0 C77.34750416 18.69500831 77.34750416 18.69500831 81.609375 27.3671875 C82.34257713 28.85868317 82.34257713 28.85868317 83.09059143 30.38031006 C84.64500317 33.5445826 86.19783483 36.70962489 87.75 39.875 C88.28523285 40.96625183 88.8204657 42.05750366 89.37191772 43.18182373 C95.59976073 55.88894693 101.7689956 68.60644921 107.61401367 81.49487305 C114.0251419 95.56428973 120.93207936 109.40177033 127.72550964 123.28918457 C131.14805888 130.29093489 134.51705814 137.3172994 137.86401367 144.35546875 C140.54291016 149.97864102 143.25357702 155.58549912 145.984375 161.18359375 C147.44798611 164.18486198 148.91157763 167.18613973 150.375 170.1875 C150.73790131 170.93165161 151.10080261 171.67580322 151.47470093 172.44250488 C157.14719126 184.08391474 162.67832547 195.78335749 168.06591797 207.55932617 C168.80479248 209.16964722 168.80479248 209.16964722 169.55859375 210.8125 C169.98454834 211.74707031 170.41050293 212.68164062 170.84936523 213.64453125 C172.02140424 216.17641088 172.02140424 216.17641088 174 219 C174 219.99 174 220.98 174 222 C174.66 222 175.32 222 176 222 C176.1139209 221.29149902 176.2278418 220.58299805 176.34521484 219.85302734 C177.05323901 216.76802719 178.13514862 214.2171585 179.4765625 211.3515625 C179.97889404 210.27140869 180.48122559 209.19125488 180.9987793 208.07836914 C181.80375854 206.36895142 181.80375854 206.36895142 182.625 204.625 C183.17260986 203.45122803 183.72021973 202.27745605 184.28442383 201.06811523 C185.36944332 198.74371596 186.45670337 196.42036103 187.54638672 194.09814453 C188.71463925 191.60820086 189.8779233 189.11616826 191.03515625 186.62109375 C192.68103208 183.07642974 194.33787536 179.53705994 196 176 C196.34095703 175.27296875 196.68191406 174.5459375 197.03320312 173.796875 C200.86702081 165.62888246 204.72685999 157.48288899 208.8125 149.4375 C212.98476459 141.21141618 216.79653758 132.82265585 220.63671875 124.43774414 C223.76856275 117.61572327 227.02020579 110.890321 230.4296875 104.203125 C232.21746882 100.55640688 233.8362497 96.85633339 235.4375 93.125 C238.06965028 86.99340371 240.92796455 81.01948533 243.94897461 75.07080078 C246.39016731 70.254124 248.7202068 65.3949812 251 60.5 C253.47827407 55.18308447 256.02888108 49.91639329 258.6875 44.6875 C263.16978286 35.85165625 267.29019912 26.84505602 271.43237305 17.84643555 C271.96515869 16.69054932 272.49794434 15.53466309 273.046875 14.34375 C273.51963867 13.31443359 273.99240234 12.28511719 274.47949219 11.22460938 C276.25779761 7.45327701 278.13531139 3.72937721 280 0 C304.75 0 329.5 0 355 0 C353.05593614 5.83219157 351.44287546 10.46749999 348.7109375 15.76953125 C347.99792511 17.16725239 347.28540144 18.56522289 346.57324219 19.96337891 C346.17069214 20.74924377 345.76814209 21.53510864 345.35339355 22.3447876 C342.92400458 27.11098714 340.53589476 31.89793174 338.14212799 36.68209457 C336.9044553 39.15540304 335.66569192 41.62816456 334.42692184 44.10092354 C333.79069604 45.37096822 333.15455015 46.64105293 332.51848221 47.91117668 C330.9151103 51.11280349 329.31094196 54.31402658 327.70507812 57.5144043 C317.9348109 76.98136068 317.9348109 76.98136068 308.5140686 96.61930847 C305.15978246 103.75845874 301.61981758 110.80312771 298.07924652 117.85104561 C296.66636873 120.66431383 295.256609 123.47913882 293.84687138 126.29398155 C292.75892652 128.46621344 291.67053975 130.63822348 290.58207703 132.81019592 C287.7362944 138.48937331 284.89261448 144.16960319 282.04912853 149.84993076 C279.90906584 154.12485587 277.76825501 158.39940286 275.62573242 162.6730957 C263.43196804 186.92561933 263.43196804 186.92561933 251.63700867 211.37342834 C248.22411457 218.61214397 244.64089665 225.76199611 241.04841042 232.91271782 C239.71003482 235.5772922 238.37456537 238.24331716 237.03916931 240.90938568 C236.03959646 242.90488737 235.0395777 244.90016508 234.03947449 246.895401 C231.43236073 252.09719869 228.82738286 257.3000656 226.22258282 262.50302219 C224.26412368 266.41474308 222.30491646 270.3260855 220.34399414 274.23657227 C212.2103471 290.45803486 204.12402438 306.69100623 196.34448242 323.08618164 C192.93782839 330.25523436 189.38145113 337.34826108 185.8125 344.4375 C185.13977673 345.77789582 184.46725107 347.11839085 183.79492188 348.45898438 C182.19885569 351.64045205 180.6002443 354.82063137 179 358 C178.34 358 177.68 358 177 358 C172.9375 349.875 168.875 341.75 164.8125 333.625 C164.37381592 332.7477124 163.93513184 331.8704248 163.4831543 330.96655273 C162.59243208 329.18494441 161.70197337 327.40320432 160.81176758 325.62133789 C158.87396072 321.74322193 156.9345739 317.86602676 154.98046875 313.99609375 C151.66177132 307.41353261 148.41855459 300.80107829 145.24981689 294.1448822 C136.15764605 275.05661253 126.64594567 256.17793749 117.17272949 237.27679443 C114.79597056 232.53357485 112.42151585 227.78920211 110.046875 223.04492188 C106.9570065 216.87215996 103.86646962 210.69973424 100.77437973 204.52808475 C99.21967682 201.42489906 97.66533086 198.32153467 96.11105347 195.21813583 C95.37453188 193.74772512 94.63785962 192.27738986 93.90103149 190.80713272 C89.7192899 182.46245701 85.56083355 174.10787986 81.46875 165.71875 C80.98853394 164.73612183 80.50831787 163.75349365 80.0135498 162.74108887 C78.00486302 158.63081578 75.99786087 154.51972086 73.99072266 150.40869141 C72.50482959 147.3659185 71.01805336 144.32357818 69.53125 141.28125 C69.09453979 140.38595581 68.65782959 139.49066162 68.20788574 138.5682373 C64.19232321 130.35189325 60.09862471 122.17509829 56 114 C55.5563485 113.11500069 55.11269699 112.23000137 54.6556015 111.3181839 C52.62492182 107.26761456 50.59400186 103.21716583 48.56274223 99.16688728 C43.81353568 89.69694474 39.06823071 80.22505092 34.32439613 70.75241661 C31.1459917 64.40596394 27.96605123 58.06028905 24.78271484 51.71630859 C21.9823346 46.13549722 19.18478152 40.55327936 16.39059389 34.96936476 C14.91829696 32.02736733 13.44419626 29.08629708 11.96751785 26.14649582 C10.32699816 22.87994929 8.69148225 19.61094367 7.05712891 16.34130859 C6.57194794 15.37813721 6.08676697 14.41496582 5.58688354 13.42260742 C4.91855499 12.08182632 4.91855499 12.08182632 4.23672485 10.71395874 C3.85074442 9.94384146 3.46476398 9.17372417 3.06708717 8.38027 C1.85023009 5.66591969 0.9406614 2.82198421 0 0 Z " fill="#305FEE" transform="translate(442,320)"/>
<path d="M0 0 C24.75 0 49.5 0 75 0 C74.34 1.32 73.68 2.64 73 4 C73 3.34 73 2.68 73 2 C65.05437337 1.97675268 57.10876114 1.95902205 49.16310883 1.94818783 C45.47298474 1.94298599 41.78288406 1.93593776 38.09277344 1.92456055 C34.5266141 1.91363525 30.96047716 1.90770287 27.39430237 1.90512276 C25.3826117 1.90239642 23.37092995 1.89459988 21.35925293 1.88670349 C10.92041526 1.32072924 10.92041526 1.32072924 1.1875 4.125 C-0.20635114 6.32581759 -1.20953382 8.62295547 -2.18359375 11.03515625 C-4.00859368 15.42738097 -6.15916813 19.66089739 -8.6875 23.6875 C-10.11858023 25.913445 -10.11858023 25.913445 -10.43359375 28.37109375 C-11.02724979 31.12647661 -11.9389412 32.9641619 -13.375 35.375 C-14.92733168 37.9939645 -16.22257447 40.52301934 -17.41796875 43.33203125 C-19.05762784 47.13361122 -20.94073504 50.69256749 -22.9375 54.3125 C-25.17603446 58.43132289 -27.30559587 62.47036987 -28.9375 66.875 C-30.78712491 71.8045433 -33.18031721 76.4080242 -35.625 81.0625 C-36.22042603 82.2079126 -36.22042603 82.2079126 -36.82788086 83.37646484 C-37.2069458 84.08883301 -37.58601074 84.80120117 -37.9765625 85.53515625 C-38.48823975 86.50014038 -38.48823975 86.50014038 -39.01025391 87.48461914 C-40 89 -40 89 -42 90 C-40.59045641 85.4892885 -38.8219813 81.24177141 -36.8046875 76.9765625 C-36.49635986 76.31834503 -36.18803223 75.66012756 -35.87036133 74.98196411 C-34.87547662 72.86127731 -33.87546922 70.74305721 -32.875 68.625 C-32.18368838 67.15530548 -31.49244513 65.6855788 -30.80126953 64.21582031 C-27.56872461 57.3551664 -24.32165014 50.50636007 -20.875 43.75 C-16.53644885 35.22579818 -12.56472452 26.52996738 -8.56591797 17.84277344 C-8.03369629 16.6880957 -7.50147461 15.53341797 -6.953125 14.34375 C-6.48036133 13.31443359 -6.00759766 12.28511719 -5.52050781 11.22460938 C-3.74220239 7.45327701 -1.86468861 3.72937721 0 0 Z " fill="#0E9AE3" transform="translate(722,320)"/>
<path d="M0 0 C0.99 0.495 0.99 0.495 2 1 C-2.35108475 9.70585474 -6.70515417 18.41019956 -11.06595898 27.11118984 C-14.10172557 33.16845244 -17.13550657 39.22670778 -20.16856861 45.28532505 C-22.18756229 49.31811399 -24.20730407 53.3505246 -26.22875977 57.38208008 C-34.51038614 73.90006849 -42.75358192 90.42574199 -50.6730957 107.12133789 C-54.07301414 114.27907478 -57.62444708 121.35997709 -61.1875 128.4375 C-61.86022327 129.77789582 -62.53274893 131.11839085 -63.20507812 132.45898438 C-64.80114431 135.64045205 -66.3997557 138.82063137 -68 142 C-68.66 142 -69.32 142 -70 142 C-70.33 141.01 -70.66 140.02 -71 139 C-70.12408203 138.22849609 -70.12408203 138.22849609 -69.23046875 137.44140625 C-66.58344448 134.54405044 -64.98616238 131.44323724 -63.3125 127.9375 C-62.9721875 127.24140625 -62.631875 126.5453125 -62.28125 125.828125 C-59.29697484 119.69679604 -56.38088824 113.53060565 -53.49731445 107.35131836 C-50.22282334 100.36319834 -46.75489066 93.47364722 -43.29272461 86.57739258 C-40.72106426 81.45009922 -38.15834161 76.31833153 -35.59375 71.1875 C-34.42581407 68.85154609 -33.25784479 66.51560885 -32.08984375 64.1796875 C-31.49332478 62.98665467 -30.89680787 61.79362081 -30.30029297 60.60058594 C-29.10009766 58.20019531 -27.89990234 55.79980469 -26.69970703 53.39941406 C-26.40374634 52.8074826 -26.10778564 52.21555115 -25.80285645 51.60568237 C-24.91631682 49.83263342 -24.02969191 48.05962711 -23.14306641 46.28662109 C-21.99638542 43.99293674 -20.8502162 41.69899645 -19.70458984 39.40478516 C-17.28501268 34.56060649 -14.86180445 29.71866419 -12.41015625 24.890625 C-12.03322632 24.14578857 -11.65629639 23.40095215 -11.26794434 22.63354492 C-10.59695718 21.30905766 -9.92285659 19.98614014 -9.24475098 18.6652832 C-7.80370651 15.81548207 -6.59207067 13.14997077 -6 10 C-5.34 10 -4.68 10 -4 10 C-3.896875 9.278125 -3.79375 8.55625 -3.6875 7.8125 C-2.94013068 4.75508007 -1.71954811 2.61670365 0 0 Z " fill="#1360E5" transform="translate(689,536)"/>
<path d="M0 0 C22.44 0 44.88 0 68 0 C66 2 66 2 63.80796814 2.23377991 C62.44303978 2.22259377 62.44303978 2.22259377 61.05053711 2.21118164 C60.01863754 2.20780289 58.98673798 2.20442413 57.92356873 2.20094299 C56.80281448 2.18748337 55.68206024 2.17402374 54.52734375 2.16015625 C53.37512833 2.15495468 52.2229129 2.14975311 51.03578186 2.14439392 C47.33622859 2.12653014 43.63694789 2.09539145 39.9375 2.0625 C36.26307124 2.03480027 32.58868558 2.01004845 28.91419983 1.99131775 C26.62578219 1.97915743 24.33738477 1.96165101 22.04905701 1.93800354 C15.93806807 1.90013667 10.05869749 2.1894998 4 3 C5.36632005 7.41071557 7.09003021 11.42570037 9.16015625 15.55078125 C9.46597626 16.16228027 9.77179626 16.7737793 10.08688354 17.40380859 C11.07462278 19.37547858 12.0683667 21.34404733 13.0625 23.3125 C13.74763778 24.6765958 14.43261421 26.04077264 15.11743164 27.4050293 C18.97391083 35.07172299 22.90850834 42.68925939 26.97851562 50.24511719 C30.95638614 57.68350511 34.48016033 65.33691582 38 73 C37.01 73.495 37.01 73.495 36 74 C31.59675263 65.23989952 27.19786089 56.4776271 22.80447578 47.71257591 C20.7641928 43.64243535 18.72243204 39.5730505 16.67724609 35.50537109 C14.70261873 31.57788881 12.73193616 27.6484503 10.76394272 23.71763992 C10.01342023 22.22028277 9.26149266 20.72362901 8.50812149 19.22770309 C7.45103765 17.12810851 6.39903267 15.0260408 5.34814453 12.92333984 C5.03740997 12.30906128 4.72667542 11.69478271 4.40652466 11.06188965 C2.57595809 7.38333166 1.31718047 3.95154142 0 0 Z " fill="#873CD5" transform="translate(442,320)"/>
<path d="M0 0 C2.6377409 3.26510898 4.47774236 6.69728052 6.35546875 10.4453125 C6.66196854 11.05639862 6.96846832 11.66748474 7.28425598 12.29708862 C7.92739171 13.58200506 8.56852715 14.86792445 9.20776367 16.15478516 C10.18917754 18.12837347 11.17910598 20.09752438 12.16992188 22.06640625 C12.79478438 23.31745196 13.4191509 24.56874555 14.04296875 25.8203125 C14.61039795 26.95742676 15.17782715 28.09454102 15.76245117 29.26611328 C17 32 17 32 17 34 C-3.79 34 -24.58 34 -46 34 C-46 33.34 -46 32.68 -46 32 C-45.29256149 32.00222061 -44.58512299 32.00444122 -43.85624695 32.00672913 C-37.1907713 32.02676244 -30.52530405 32.04198968 -23.85980511 32.05181217 C-20.43297225 32.05703175 -17.00616425 32.06411265 -13.5793457 32.07543945 C-9.64013974 32.08837846 -5.70094387 32.09323586 -1.76171875 32.09765625 C-0.53039719 32.10281754 0.70092438 32.10797882 1.96955872 32.11329651 C3.11051498 32.11337204 4.25147125 32.11344757 5.42700195 32.11352539 C6.93590752 32.11685631 6.93590752 32.11685631 8.47529602 32.12025452 C11.12680611 32.10813906 11.12680611 32.10813906 14 31 C12.04493468 27.06086908 10.08539091 23.12398288 8.125 19.1875 C7.29162109 17.50817383 7.29162109 17.50817383 6.44140625 15.79492188 C5.90644531 14.72177734 5.37148438 13.64863281 4.8203125 12.54296875 C4.32805176 11.55321045 3.83579102 10.56345215 3.32861328 9.54370117 C1.98710247 6.86532134 1.98710247 6.86532134 0 4 C0 2.68 0 1.36 0 0 Z " fill="#1840D0" transform="translate(576,645)"/>
<path d="M0 0 C0.66 0 1.32 0 2 0 C0.29821047 5.90011292 -2.46863485 11.1903549 -5.2265625 16.6484375 C-5.73424164 17.66096588 -6.24192078 18.67349426 -6.76498413 19.71670532 C-8.38123185 22.93804008 -10.00303193 26.15654232 -11.625 29.375 C-12.72432621 31.56361734 -13.82328871 33.75241741 -14.921875 35.94140625 C-17.61037249 41.29639535 -20.30342944 46.64907206 -23 52 C-23.66 52 -24.32 52 -25 52 C-25.495 50.515 -25.495 50.515 -26 49 C-25.41605469 48.48566406 -24.83210937 47.97132813 -24.23046875 47.44140625 C-21.58346813 44.54407633 -19.98611148 41.44325295 -18.3125 37.9375 C-17.80529419 36.89988525 -17.80529419 36.89988525 -17.2878418 35.84130859 C-14.19371395 29.48347294 -11.17849394 23.08656312 -8.16552734 16.68994141 C-5.52490857 11.08486534 -2.82204091 5.51645182 0 0 Z " fill="#114BDA" transform="translate(644,626)"/>
<path d="M0 0 C0.66 0.99 1.32 1.98 2 3 C1.20335937 4.45019531 1.20335937 4.45019531 0.390625 5.9296875 C-4.18552629 14.20777876 -4.18552629 14.20777876 -7.9375 22.875 C-9.78712491 27.8045433 -12.18031721 32.4080242 -14.625 37.0625 C-15.02195068 37.8261084 -15.41890137 38.5897168 -15.82788086 39.37646484 C-16.2069458 40.08883301 -16.58601074 40.80120117 -16.9765625 41.53515625 C-17.31768066 42.178479 -17.65879883 42.82180176 -18.01025391 43.48461914 C-19 45 -19 45 -21 46 C-19.56426253 41.38633159 -17.73022357 37.05389048 -15.6640625 32.6953125 C-15.34343842 32.01250214 -15.02281433 31.32969177 -14.69247437 30.62619019 C-14.01659463 29.18837308 -13.3391275 27.75130121 -12.66015625 26.31494141 C-11.63204997 24.13991467 -10.6085541 21.96276861 -9.5859375 19.78515625 C-6.46589671 13.15185935 -3.32624934 6.53309486 0 0 Z " fill="#1277E0" transform="translate(701,364)"/>
<path d="M0 0 C1.10205078 3.75244141 1.10205078 3.75244141 0.18359375 5.98046875 C-0.20699219 6.64691406 -0.59757813 7.31335938 -1 8 C-1.65451296 9.43356888 -2.30007423 10.87125216 -2.9375 12.3125 C-3.28683594 13.10140625 -3.63617187 13.8903125 -3.99609375 14.703125 C-4.84673247 16.64933344 -5.67577264 18.60496001 -6.5 20.5625 C-7.92220315 23.82171555 -9.47350325 26.97164135 -11.08984375 30.13671875 C-12.10649227 32.14830918 -12.10649227 32.14830918 -13.125 34.9375 C-14 37 -14 37 -16 38 C-15.42875688 33.00415783 -13.78537091 28.89744185 -11.62109375 24.4140625 C-11.28956802 23.71227875 -10.9580423 23.010495 -10.61647034 22.28744507 C-9.56378937 20.06323981 -8.50084101 17.84412553 -7.4375 15.625 C-6.71871546 14.11100238 -6.00060924 12.59668252 -5.28320312 11.08203125 C-3.52996282 7.38424579 -1.76750215 3.69098834 0 0 Z " fill="#0D87E3" transform="translate(718,328)"/>
<path d="M0 0 C0.33 0.99 0.66 1.98 1 3 C0.05988318 4.70116376 -0.94895617 6.36504293 -2 8 C-2.29003906 8.72832031 -2.58007812 9.45664062 -2.87890625 10.20703125 C-4.27060867 13.67416445 -5.93792101 16.98291931 -7.625 20.3125 C-8.11226563 21.28026367 -8.11226563 21.28026367 -8.609375 22.26757812 C-9.40441956 23.84597541 -10.20195634 25.42311694 -11 27 C-12.00641963 24.37144623 -12.08371661 23.23371466 -11.11962891 20.54223633 C-10.65991699 19.64786865 -10.20020508 18.75350098 -9.7265625 17.83203125 C-9.2315625 16.85685547 -8.7365625 15.88167969 -8.2265625 14.87695312 C-7.69804687 13.86568359 -7.16953125 12.85441406 -6.625 11.8125 C-6.10421875 10.78962891 -5.5834375 9.76675781 -5.046875 8.71289062 C-1.19631165 1.19631165 -1.19631165 1.19631165 0 0 Z " fill="#A123D4" transform="translate(407,340)"/>
<path d="M0 0 C0.66 0.99 1.32 1.98 2 3 C1.54625 3.721875 1.0925 4.44375 0.625 5.1875 C-1.00479968 7.85111537 -1.00479968 7.85111537 -1.90625 10.28125 C-3.15437487 13.38373181 -4.61652154 16.32833608 -6.125 19.3125 C-6.66382813 20.38113281 -7.20265625 21.44976562 -7.7578125 22.55078125 C-8.37269531 23.76314453 -8.37269531 23.76314453 -9 25 C-10.42122196 20.73633411 -8.54033794 18.0595446 -6.75 14.1875 C-6.28013672 13.13852539 -6.28013672 13.13852539 -5.80078125 12.06835938 C-3.96421185 7.99513803 -2.02593307 3.98308447 0 0 Z " fill="#1370E4" transform="translate(678,412)"/>
<path d="M0 0 C1 3 1 3 0.28735352 4.99291992 C-0.09493408 5.73131104 -0.47722168 6.46970215 -0.87109375 7.23046875 C-1.28037109 8.03291016 -1.68964844 8.83535156 -2.11132812 9.66210938 C-2.54896484 10.49548828 -2.98660156 11.32886719 -3.4375 12.1875 C-4.0881543 13.4549707 -4.0881543 13.4549707 -4.75195312 14.74804688 C-5.82582553 16.83678771 -6.90873822 18.92030626 -8 21 C-8.66 21 -9.32 21 -10 21 C-10.33 20.01 -10.66 19.02 -11 18 C-10.41734375 17.48953125 -9.8346875 16.9790625 -9.234375 16.453125 C-6.55191397 13.5080454 -4.93791425 10.31417944 -3.25 6.75 C-2.77626953 5.77546875 -2.77626953 5.77546875 -2.29296875 4.78125 C-1.52126035 3.19106299 -0.75959725 1.59600771 0 0 Z " fill="#1350E5" transform="translate(629,657)"/>
<path d="M0 0 C0.66 0 1.32 0 2 0 C2.66 1.98 3.32 3.96 4 6 C2.68 6 1.36 6 0 6 C-1.57518451 7.74477633 -1.57518451 7.74477633 -2.75 10 C-3.17796875 10.7425 -3.6059375 11.485 -4.046875 12.25 C-4.36140625 12.8275 -4.6759375 13.405 -5 14 C-5.33 13.34 -5.66 12.68 -6 12 C-4.78515625 9.1796875 -4.78515625 9.1796875 -3.0625 5.875 C-2.49660156 4.77929688 -1.93070312 3.68359375 -1.34765625 2.5546875 C-0.90292969 1.71164062 -0.45820313 0.86859375 0 0 Z " fill="#A828D0" transform="translate(415,323)"/>
<path d="M0 0 C0.66 0.99 1.32 1.98 2 3 C1.49339844 3.88751953 1.49339844 3.88751953 0.9765625 4.79296875 C-1.83016963 9.7416029 -1.83016963 9.7416029 -4.125 14.9375 C-5 17 -5 17 -8 19 C-6.00386732 12.2813095 -3.2708579 6.19265192 0 0 Z " fill="#1459D9" transform="translate(639,494)"/>
<path d="M0 0 C3.96 0 7.92 0 12 0 C12 0.33 12 0.66 12 1 C7.545 1.495 7.545 1.495 3 2 C3.28875 2.86625 3.5775 3.7325 3.875 4.625 C4.91666667 7.75 5.95833333 10.875 7 14 C4.44736912 11.725306 3.15855185 9.56797307 1.8125 6.4375 C1.46832031 5.65246094 1.12414062 4.86742187 0.76953125 4.05859375 C0 2 0 2 0 0 Z " fill="#9B3BE2" transform="translate(443,321)"/>
<path d="M0 0 C1.25348607 2.95106435 1.01044806 3.97406463 -0.21484375 7.015625 C-1.06755859 8.61664062 -1.06755859 8.61664062 -1.9375 10.25 C-2.50339844 11.32765625 -3.06929688 12.4053125 -3.65234375 13.515625 C-4.09707031 14.33546875 -4.54179687 15.1553125 -5 16 C-5.66 16 -6.32 16 -7 16 C-5.35433477 10.31497465 -2.70967216 5.23318364 0 0 Z " fill="#7B15C9" transform="translate(290,575)"/>
<path d="M0 0 C2.7986091 0.00360181 5.55763822 0.10324698 8.34765625 0.31640625 C8.34765625 0.64640625 8.34765625 0.97640625 8.34765625 1.31640625 C7.08953125 1.41953125 5.83140625 1.52265625 4.53515625 1.62890625 C1.28936498 2.04081624 1.28936498 2.04081624 -1.52734375 3.62890625 C-2.75015532 5.46312361 -3.75075812 7.30517676 -4.65234375 9.31640625 C-5.73721211 6.65354755 -5.66853539 5.37577561 -4.90234375 2.56640625 C-2.65234375 0.31640625 -2.65234375 0.31640625 0 0 Z " fill="#0C9AF1" transform="translate(724.65234375,320.68359375)"/>
<path d="M0 0 C1.06528748 2.73019786 1.07998186 3.79298812 0.00390625 6.578125 C-0.47175781 7.45984375 -0.94742187 8.3415625 -1.4375 9.25 C-1.91058594 10.14203125 -2.38367188 11.0340625 -2.87109375 11.953125 C-3.24363281 12.62859375 -3.61617188 13.3040625 -4 14 C-4.66 14 -5.32 14 -6 14 C-4.50829734 9.0276578 -2.39542583 4.58154261 0 0 Z " fill="#7011BC" transform="translate(281,593)"/>
<path d="M0 0 C1 3 1 3 -0.1875 6.5 C-1.88906681 9.78578418 -2.87850793 11.17015982 -6 13 C-4.58707905 8.1725201 -2.57025846 4.2837641 0 0 Z " fill="#8417D0" transform="translate(303,550)"/>
<path d="M0 0 C1 3 1 3 -0.21484375 5.69921875 C-0.78332031 6.68535156 -1.35179687 7.67148437 -1.9375 8.6875 C-2.50339844 9.68136719 -3.06929688 10.67523437 -3.65234375 11.69921875 C-4.31943359 12.83810547 -4.31943359 12.83810547 -5 14 C-5.33 13.34 -5.66 12.68 -6 12 C-5.29296875 9.94140625 -5.29296875 9.94140625 -4.1875 7.5625 C-3.83042969 6.78003906 -3.47335937 5.99757813 -3.10546875 5.19140625 C-2 3 -2 3 0 0 Z " fill="#7E26DE" transform="translate(373,545)"/>
<path d="M0 0 C0.66 0.33 1.32 0.66 2 1 C0.72278474 5.99275057 -1.17330957 8.57611908 -5 12 C-3.68938409 7.76570244 -2.05643741 3.92592596 0 0 Z " fill="#1163DF" transform="translate(655,461)"/>
<path d="M0 0 C0.66 0 1.32 0 2 0 C0.68938409 4.23429756 -0.94356259 8.07407404 -3 12 C-3.66 12 -4.32 12 -5 12 C-3.68938409 7.76570244 -2.05643741 3.92592596 0 0 Z " fill="#9422CA" transform="translate(382,389)"/>
<path d="M0 0 C0.66 1.32 1.32 2.64 2 4 C5.96 4 9.92 4 14 4 C14 4.33 14 4.66 14 5 C9.05 5 4.1 5 -1 5 C-0.67 3.35 -0.34 1.7 0 0 Z " fill="#570DA3" transform="translate(241,674)"/>
<path d="M0 0 C3.63 0 7.26 0 11 0 C6.25 3.875 6.25 3.875 4 5 C4 3.68 4 2.36 4 1 C2.68 0.67 1.36 0.34 0 0 Z " fill="#6436DA" transform="translate(434,562)"/>
<path d="M0 0 C0.99 0.33 1.98 0.66 3 1 C0.525 5.455 0.525 5.455 -2 10 C-2.66 10 -3.32 10 -4 10 C-2.8905928 6.51329166 -1.73662334 3.22515763 0 0 Z " fill="#821BC6" transform="translate(326,502)"/>
<path d="M0 0 C0.66 0.99 1.32 1.98 2 3 C0.35 5.31 -1.3 7.62 -3 10 C-4 7 -4 7 -3.22265625 5.17578125 C-2.1484375 3.45052083 -1.07421875 1.72526042 0 0 Z " fill="#8918D4" transform="translate(311,534)"/>
<path d="M0 0 C0.66 0 1.32 0 2 0 C2.625 1.875 2.625 1.875 3 4 C2.34 4.66 1.68 5.32 1 6 C0.01 6 -0.98 6 -2 6 C-1.34 4.02 -0.68 2.04 0 0 Z " fill="#17083B" transform="translate(415,461)"/>
<path d="M0 0 C0 0.66 0 1.32 0 2 C-3.96 3.98 -3.96 3.98 -8 6 C-6.56530686 1.69592058 -4.58010985 0 0 0 Z " fill="#6634DC" transform="translate(433,569)"/>
</svg>
